<?xml version="1.0" encoding="UTF-8"?>
<svg id="Layer_1" data-name="Layer 1" xmlns="http://www.w3.org/2000/svg" xmlns:xlink="http://www.w3.org/1999/xlink" viewBox="0 0 761.01 395.31">
  <defs>
    <style>
      .cls-1 {
        fill: url(#linear-gradient);
        stroke: #000;
        stroke-miterlimit: 10;
        stroke-width: .25px;
      }

      .cls-2 {
        fill: url(#linear-gradient-12);
      }

      .cls-2, .cls-3, .cls-4, .cls-5, .cls-6, .cls-7, .cls-8, .cls-9, .cls-10, .cls-11, .cls-12, .cls-13, .cls-14, .cls-15 {
        stroke-width: 0px;
      }

      .cls-16 {
        font-family: Montserrat-Medium, Montserrat;
        font-size: 33.14px;
        font-weight: 500;
      }

      .cls-16, .cls-15 {
        fill: #aaa;
      }

      .cls-3 {
        fill: url(#linear-gradient-6);
      }

      .cls-4 {
        fill: url(#linear-gradient-11);
      }

      .cls-17 {
        letter-spacing: .29em;
      }

      .cls-5 {
        fill: url(#linear-gradient-5);
      }

      .cls-18 {
        letter-spacing: .29em;
      }

      .cls-19 {
        letter-spacing: .29em;
      }

      .cls-6 {
        fill: url(#linear-gradient-13);
      }

      .cls-7 {
        fill: url(#linear-gradient-2);
      }

      .cls-8 {
        fill: url(#linear-gradient-7);
      }

      .cls-9 {
        fill: url(#linear-gradient-3);
      }

      .cls-20 {
        letter-spacing: .28em;
      }

      .cls-10 {
        fill: url(#linear-gradient-9);
      }

      .cls-21 {
        letter-spacing: .28em;
      }

      .cls-11 {
        fill: url(#linear-gradient-8);
      }

      .cls-22 {
        letter-spacing: .28em;
      }

      .cls-12 {
        fill: #f3d932;
      }

      .cls-13 {
        fill: url(#linear-gradient-10);
      }

      .cls-14 {
        fill: url(#linear-gradient-4);
      }
    </style>
    <linearGradient id="linear-gradient" x1="193.78" y1="139.19" x2="276.79" y2="91.27" gradientUnits="userSpaceOnUse">
      <stop offset="0" stop-color="#020236"/>
      <stop offset="1" stop-color="#222c5c"/>
    </linearGradient>
    <linearGradient id="linear-gradient-2" x1="352.07" y1="50.07" x2="276.84" y2="183.15" gradientUnits="userSpaceOnUse">
      <stop offset="0" stop-color="#323e7c"/>
      <stop offset="1" stop-color="#4558a1"/>
    </linearGradient>
    <linearGradient id="linear-gradient-3" x1="484.94" y1="182.33" x2="405.47" y2="46.36" gradientUnits="userSpaceOnUse">
      <stop offset="0" stop-color="#4558a1"/>
      <stop offset="1" stop-color="#323e7c"/>
    </linearGradient>
    <linearGradient id="linear-gradient-4" x1="484.37" y1="91.46" x2="567.37" y2="139.38" xlink:href="#linear-gradient"/>
    <linearGradient id="linear-gradient-5" x1="300.29" y1="166.07" x2="382.08" y2="213.29" gradientUnits="userSpaceOnUse">
      <stop offset="0" stop-color="#c4a329"/>
      <stop offset="1" stop-color="#f2d832"/>
    </linearGradient>
    <linearGradient id="linear-gradient-6" x1="300.8" y1="120.37" x2="460.7" y2="120.37" gradientUnits="userSpaceOnUse">
      <stop offset="0" stop-color="#010135" stop-opacity=".99"/>
      <stop offset="1" stop-color="#232d5d"/>
    </linearGradient>
    <linearGradient id="linear-gradient-7" x1="378.69" y1="213.72" x2="462.52" y2="165.32" xlink:href="#linear-gradient-5"/>
    <linearGradient id="linear-gradient-8" x1="33.65" y1="349.58" x2="33.65" y2="278.15" gradientUnits="userSpaceOnUse">
      <stop offset="0" stop-color="#334080"/>
      <stop offset="1" stop-color="#42559a"/>
    </linearGradient>
    <linearGradient id="linear-gradient-9" x1="105.22" x2="105.22" xlink:href="#linear-gradient-8"/>
    <linearGradient id="linear-gradient-10" x1="182.15" y1="348.2" x2="182.15" y2="279.53" xlink:href="#linear-gradient-8"/>
    <linearGradient id="linear-gradient-11" x1="252.94" y1="348.2" x2="252.94" y2="279.53" xlink:href="#linear-gradient-8"/>
    <linearGradient id="linear-gradient-12" x1="324.28" y1="348.2" x2="324.28" y2="279.53" xlink:href="#linear-gradient-8"/>
    <linearGradient id="linear-gradient-13" x1="391.98" y1="348.2" x2="391.98" y2="279.53" xlink:href="#linear-gradient-8"/>
  </defs>
  <g>
    <g>
      <polygon class="cls-1" points="195.87 137.99 275.54 184.31 275.54 91.99 195.59 45.83 195.87 137.99 195.87 137.99"/>
      <polygon class="cls-15" points="275.54 91.99 355.49 45.83 275.54 0 195.59 45.83 275.54 91.99 275.54 91.99"/>
      <polygon class="cls-7" points="275.54 184.31 355.2 137.99 355.49 45.83 275.54 91.99 275.54 184.31 275.54 184.31"/>
    </g>
    <g>
      <polygon class="cls-9" points="405.81 138.1 485.47 184.42 485.47 92.1 405.52 45.94 405.81 138.1 405.81 138.1"/>
      <polygon class="cls-15" points="485.47 92.1 565.42 45.94 485.47 .11 405.52 45.94 485.47 92.1 485.47 92.1"/>
      <polygon class="cls-14" points="485.47 184.42 565.14 138.1 565.42 45.94 485.47 92.1 485.47 184.42 485.47 184.42"/>
    </g>
    <g>
      <polygon class="cls-5" points="301.08 212.36 380.75 258.69 380.75 166.37 300.8 120.21 301.08 212.36 301.08 212.36"/>
      <polygon class="cls-3" points="380.75 166.37 460.7 120.21 380.75 74.38 300.8 120.21 380.75 166.37 380.75 166.37"/>
      <polygon class="cls-8" points="380.75 258.69 460.42 212.36 460.7 120.21 380.75 166.37 380.75 258.69 380.75 258.69"/>
    </g>
  </g>
  <g>
    <g>
      <path class="cls-11" d="m18.4,345.02c-5.72-3.04-10.22-7.28-13.49-12.71C1.63,326.88,0,320.73,0,313.87s1.63-13.01,4.91-18.44c3.27-5.43,7.77-9.66,13.49-12.71,5.72-3.04,12.18-4.56,19.38-4.56,6.28,0,11.94,1.11,16.97,3.34,5.04,2.22,9.22,5.43,12.56,9.61l-12.36,11.19c-4.45-5.36-9.84-8.05-16.19-8.05-3.73,0-7.05.82-9.96,2.45-2.91,1.64-5.17,3.94-6.77,6.92-1.6,2.98-2.4,6.39-2.4,10.25s.8,7.28,2.4,10.25c1.6,2.98,3.86,5.28,6.77,6.92,2.91,1.64,6.23,2.45,9.96,2.45,6.34,0,11.74-2.68,16.19-8.05l12.36,11.18c-3.34,4.19-7.52,7.39-12.56,9.61-5.04,2.22-10.69,3.34-16.97,3.34-7.2,0-13.65-1.52-19.38-4.56Z"/>
      <path class="cls-10" d="m85.65,344.97c-5.79-3.07-10.34-7.32-13.64-12.75-3.3-5.43-4.95-11.54-4.95-18.35s1.65-12.92,4.95-18.35c3.3-5.43,7.85-9.68,13.64-12.75,5.79-3.07,12.31-4.61,19.57-4.61s13.78,1.54,19.57,4.61c5.79,3.08,10.33,7.33,13.64,12.75,3.3,5.43,4.95,11.54,4.95,18.35s-1.65,12.92-4.95,18.35c-3.3,5.43-7.85,9.68-13.64,12.75-5.79,3.07-12.31,4.61-19.57,4.61s-13.78-1.54-19.57-4.61Zm28.99-13.93c2.81-1.63,5.04-3.94,6.67-6.92,1.63-2.98,2.45-6.39,2.45-10.25s-.82-7.28-2.45-10.25c-1.64-2.98-3.86-5.28-6.67-6.92-2.81-1.64-5.95-2.45-9.42-2.45s-6.61.82-9.42,2.45c-2.81,1.64-5.04,3.94-6.67,6.92-1.64,2.98-2.45,6.39-2.45,10.25s.82,7.28,2.45,10.25c1.63,2.98,3.86,5.28,6.67,6.92,2.81,1.64,5.95,2.45,9.42,2.45s6.61-.82,9.42-2.45Z"/>
      <path class="cls-13" d="m180.53,329.96h-10.6v18.25h-19.43v-68.68h31.39c6.21,0,11.61,1.03,16.19,3.09,4.58,2.06,8.11,5,10.6,8.83,2.49,3.83,3.73,8.32,3.73,13.49s-1.16,9.31-3.48,13c-2.32,3.7-5.64,6.59-9.96,8.68l14.81,21.58h-20.8l-12.46-18.25Zm9.22-32.47c-2.03-1.77-5.04-2.65-9.03-2.65h-10.79v20.11h10.79c3.99,0,7-.87,9.03-2.6,2.03-1.73,3.04-4.2,3.04-7.41s-1.02-5.69-3.04-7.46Z"/>
      <path class="cls-4" d="m285.61,279.53v68.68h-15.99l-30.32-36.59v36.59h-19.03v-68.68h15.99l30.32,36.59v-36.59h19.03Z"/>
      <path class="cls-2" d="m351.84,333.19v15.01h-55.14v-68.68h53.86v15.01h-34.63v11.58h30.51v14.52h-30.51v12.56h35.91Z"/>
      <path class="cls-6" d="m390.36,329.96h-10.6v18.25h-19.43v-68.68h31.4c6.21,0,11.61,1.03,16.19,3.09,4.58,2.06,8.11,5,10.59,8.83,2.49,3.83,3.73,8.32,3.73,13.49s-1.16,9.31-3.48,13c-2.32,3.7-5.64,6.59-9.96,8.68l14.81,21.58h-20.8l-12.46-18.25Zm9.22-32.47c-2.03-1.77-5.04-2.65-9.03-2.65h-10.79v20.11h10.79c3.99,0,7-.87,9.03-2.6,2.03-1.73,3.04-4.2,3.04-7.41s-1.02-5.69-3.04-7.46Z"/>
    </g>
    <g>
      <path class="cls-12" d="m438.45,347.52c-5.23-1.37-9.48-3.2-12.75-5.49l6.38-14.32c3.07,2.03,6.64,3.66,10.69,4.91,4.06,1.24,8.05,1.86,11.97,1.86,7.46,0,11.18-1.86,11.18-5.59,0-1.96-1.06-3.42-3.19-4.37-2.13-.95-5.54-1.94-10.25-2.99-5.17-1.11-9.48-2.31-12.95-3.58-3.47-1.28-6.44-3.32-8.93-6.13-2.49-2.81-3.73-6.61-3.73-11.38,0-4.18,1.14-7.96,3.43-11.33,2.29-3.37,5.71-6.03,10.25-8,4.55-1.96,10.12-2.94,16.73-2.94,4.51,0,8.96.51,13.34,1.52,4.38,1.02,8.24,2.5,11.58,4.46l-5.98,14.42c-6.54-3.53-12.89-5.3-19.03-5.3-3.86,0-6.67.57-8.44,1.72-1.77,1.14-2.65,2.63-2.65,4.46s1.04,3.21,3.14,4.12c2.09.92,5.46,1.86,10.1,2.84,5.23,1.11,9.57,2.31,13,3.58,3.43,1.28,6.41,3.3,8.93,6.08,2.52,2.78,3.78,6.56,3.78,11.33,0,4.12-1.15,7.85-3.43,11.19-2.29,3.34-5.72,6-10.3,8-4.58,1.99-10.14,2.99-16.68,2.99-5.56,0-10.96-.69-16.19-2.06Z"/>
      <path class="cls-12" d="m506,294.93h-21.09v-15.4h61.51v15.4h-21v53.27h-19.43v-53.27Z"/>
      <path class="cls-12" d="m564.58,344.97c-5.79-3.07-10.34-7.32-13.64-12.75-3.3-5.43-4.95-11.54-4.95-18.35s1.65-12.92,4.95-18.35c3.3-5.43,7.85-9.68,13.64-12.75,5.79-3.07,12.31-4.61,19.57-4.61s13.78,1.54,19.57,4.61c5.79,3.08,10.33,7.33,13.64,12.75,3.3,5.43,4.95,11.54,4.95,18.35s-1.65,12.92-4.95,18.35c-3.3,5.43-7.85,9.68-13.64,12.75-5.79,3.07-12.31,4.61-19.57,4.61s-13.78-1.54-19.57-4.61Zm28.99-13.93c2.81-1.63,5.04-3.94,6.67-6.92,1.63-2.98,2.45-6.39,2.45-10.25s-.82-7.28-2.45-10.25c-1.64-2.98-3.86-5.28-6.67-6.92-2.81-1.64-5.95-2.45-9.42-2.45s-6.61.82-9.42,2.45c-2.81,1.64-5.04,3.94-6.67,6.92-1.64,2.98-2.45,6.39-2.45,10.25s.82,7.28,2.45,10.25c1.63,2.98,3.86,5.28,6.67,6.92,2.81,1.64,5.95,2.45,9.42,2.45s6.61-.82,9.42-2.45Z"/>
      <path class="cls-12" d="m694.78,279.53v68.68h-15.99l-30.32-36.59v36.59h-19.03v-68.68h15.99l30.32,36.59v-36.59h19.03Z"/>
      <path class="cls-12" d="m761.01,333.19v15.01h-55.14v-68.68h53.86v15.01h-34.63v11.58h30.51v14.52h-30.51v12.56h35.91Z"/>
    </g>
  </g>
  <text class="cls-16" transform="translate(140.49 386.6)"><tspan class="cls-18" x="0" y="0">DEL</tspan><tspan class="cls-19" x="98.31" y="0">I</tspan><tspan class="cls-21" x="118.03" y="0">V</tspan><tspan class="cls-17" x="150.81" y="0">E</tspan><tspan class="cls-22" x="182.69" y="0">R</tspan><tspan class="cls-17" x="216.14" y="0">Y SER</tspan><tspan class="cls-20" x="361.77" y="0">V</tspan><tspan class="cls-18" x="394.55" y="0">ICE</tspan></text>
</svg>